<svg xmlns="http://www.w3.org/2000/svg" width="18" height="18" viewBox="0 0 18 18"><defs><linearGradient id="a" x1="9" y1="1" x2="9" y2="17" gradientUnits="userSpaceOnUse"><stop offset="0" stop-color="#5ea0ef"/><stop offset="1" stop-color="#0078d4"/></linearGradient></defs><rect x="1" y="1" width="16" height="16" rx="2" fill="url(#a)"/><path d="M9 3.5a1.2 1.2 0 1 1 0 2.4A1.2 1.2 0 0 1 9 3.5ZM6.5 7h5a.5.5 0 0 1 .5.5v.5H6v-.5a.5.5 0 0 1 .5-.5Zm-1 2h7v1h-7Zm.5 2h6a.5.5 0 0 1 .5.5V13H5.5v-1.5a.5.5 0 0 1 .5-.5Zm1 2.5h4v1h-4Z" fill="#fff" opacity=".9"/></svg>
